# This file uses centimeters as units for non-parametric coordinates.

mtllib MunicaoAcido.mtl
g default
v 0.287900 2.047156 -0.412686
v -0.287900 2.047156 -0.412686
v -0.495342 2.047156 -0.000000
v -0.287900 2.047156 0.412686
v 0.287900 2.047156 0.412686
v 0.495342 2.047156 0.000000
v 0.287900 3.175642 -0.412686
v -0.287900 3.175642 -0.412686
v -0.495342 3.175642 -0.000000
v -0.287900 3.175642 0.412686
v 0.287900 3.175642 0.412686
v 0.495342 3.175642 0.000000
v 0.344674 3.245291 -0.494067
v -0.344674 3.245291 -0.494067
v -0.593022 3.245291 -0.000000
v -0.344674 3.245291 0.494067
v 0.344674 3.245291 0.494067
v 0.593022 3.245291 0.000000
v 0.290750 3.403947 -0.416770
v -0.290750 3.403947 -0.416770
v -0.500244 3.403947 -0.000000
v -0.290750 3.403947 0.416770
v 0.290750 3.403947 0.416770
v 0.500244 3.403947 0.000000
v 0.080458 3.403947 -0.115332
v -0.080458 3.403947 -0.115332
v -0.138431 3.403947 -0.000000
v -0.080458 3.403947 0.115332
v 0.080458 3.403947 0.115332
v 0.138431 3.403947 0.000000
v 0.057233 3.528652 -0.082039
v -0.057233 3.528652 -0.082039
v 0.000000 3.528652 0.000000
v -0.098471 3.528652 -0.000000
v -0.057233 3.528652 0.082039
v 0.057233 3.528652 0.082039
v 0.098471 3.528652 0.000000
v 0.303700 1.983811 -0.435334
v -0.303700 1.983811 -0.435334
v -0.522525 1.983811 -0.000000
v -0.303700 1.983811 0.435334
v 0.303700 1.983811 0.435334
v 0.522525 1.983811 0.000000
v 0.284404 1.823513 -0.407675
v -0.284404 1.823513 -0.407675
v 0.000000 1.823513 0.000000
v -0.489326 1.823513 -0.000000
v -0.284404 1.823513 0.407675
v 0.284404 1.823513 0.407675
v 0.489326 1.823513 0.000000
v 0.272668 2.077010 -0.412686
v -0.272667 2.077010 -0.412686
v -0.272667 3.145787 -0.412686
v 0.272668 3.145787 -0.412686
v 0.272668 2.077010 -0.370427
v -0.272667 2.077010 -0.370427
v -0.272667 3.145787 -0.370427
v 0.272668 3.145787 -0.370427
v -0.267036 2.088047 0.412686
v 0.267036 2.088047 0.412686
v 0.267036 3.134750 0.412686
v -0.267036 3.134750 0.412686
v -0.267036 2.088047 0.371004
v 0.267036 2.088047 0.371004
v 0.267036 3.134750 0.371004
v -0.267036 3.134750 0.371004
vt 0.027297 0.061081
vt 0.156403 0.061081
vt 0.156403 0.359238
vt 0.027297 0.359238
vt 0.020212 0.044344
vt 0.156403 0.044344
vt 0.285509 0.061081
vt 0.285509 0.359238
vt 0.156403 0.377640
vt 0.001837 0.377640
vt 0.028865 0.001992
vt 0.156403 0.001992
vt 0.292594 0.044344
vt 0.310968 0.377640
vt 0.156403 0.419559
vt 0.026019 0.419559
vt 0.283941 0.001992
vt 0.286786 0.419559
vt 0.343868 0.061081
vt 0.472974 0.061081
vt 0.472974 0.359238
vt 0.343868 0.359238
vt 0.336782 0.044344
vt 0.472974 0.044344
vt 0.602080 0.061081
vt 0.602080 0.359238
vt 0.472974 0.377640
vt 0.318408 0.377640
vt 0.345435 0.001992
vt 0.472974 0.001992
vt 0.609165 0.044344
vt 0.627539 0.377640
vt 0.472974 0.419559
vt 0.342590 0.419559
vt 0.600512 0.001992
vt 0.603357 0.419559
vt 0.327397 0.793620
vt 0.327397 0.757539
vt 0.360345 0.757539
vt 0.360345 0.783205
vt 0.327397 0.721458
vt 0.360345 0.731874
vt 0.366945 0.793620
vt 0.366945 0.757539
vt 0.399894 0.757539
vt 0.399894 0.783205
vt 0.366945 0.721458
vt 0.399894 0.731874
vt 0.015058 0.709304
vt 0.015058 0.991686
vt 0.001837 0.991686
vt 0.001837 0.709304
vt 0.021792 0.991686
vt 0.021792 0.709304
vt 0.035012 0.709304
vt 0.035012 0.991686
vt 0.221790 0.721458
vt 0.221790 0.998008
vt 0.208750 0.998008
vt 0.208750 0.721458
vt 0.228524 0.998008
vt 0.228524 0.721458
vt 0.241564 0.721458
vt 0.241564 0.998008
vt 0.185915 0.656103
vt 0.185915 0.484914
vt 0.313453 0.570509
vt 0.313453 0.423240
vt 0.313453 0.717777
vt 0.440991 0.484914
vt 0.440991 0.656103
vt 0.457825 0.740441
vt 0.457825 0.774891
vt 0.432160 0.757666
vt 0.432160 0.787302
vt 0.432160 0.728030
vt 0.406494 0.774891
vt 0.406494 0.740441
vt 0.707417 0.486290
vt 0.707417 0.661299
vt 0.613114 0.598009
vt 0.613114 0.549580
vt 0.577034 0.724348
vt 0.577034 0.615457
vt 0.577034 0.423240
vt 0.577034 0.532132
vt 0.446650 0.661299
vt 0.540953 0.598009
vt 0.446650 0.486290
vt 0.540953 0.549580
vt 0.261519 0.721458
vt 0.261519 0.885583
vt 0.248299 0.885583
vt 0.248299 0.721458
vt 0.268073 0.885583
vt 0.268073 0.721458
vt 0.281294 0.721458
vt 0.281294 0.885583
vt 0.287848 0.882194
vt 0.287848 0.721459
vt 0.300888 0.721459
vt 0.300888 0.882194
vt 0.320662 0.721458
vt 0.320662 0.882194
vt 0.307622 0.882194
vt 0.307622 0.721458
vt 0.180255 0.705622
vt 0.016131 0.705622
vt 0.016131 0.423240
vt 0.180255 0.423240
vt 0.041566 0.721458
vt 0.202301 0.721458
vt 0.202301 0.998008
vt 0.041566 0.998008
vt 0.842266 0.043911
vt 0.634799 0.043911
vt 0.651028 0.001992
vt 0.826037 0.001992
vt 0.825179 0.062313
vt 0.651886 0.062313
vt 0.820595 0.070201
vt 0.656470 0.070201
vt 0.825179 0.360470
vt 0.820595 0.352582
vt 0.651886 0.360470
vt 0.656470 0.352582
vt 0.829934 0.377206
vt 0.647131 0.377206
vt 0.824127 0.419559
vt 0.652938 0.419559
vt 0.713076 0.798888
vt 0.920543 0.798888
vt 0.904314 0.840807
vt 0.729305 0.840807
vt 0.730163 0.780486
vt 0.903457 0.780486
vt 0.736442 0.769682
vt 0.897177 0.769682
vt 0.730163 0.482329
vt 0.736442 0.493133
vt 0.903457 0.482329
vt 0.897177 0.493133
vt 0.725408 0.465593
vt 0.908212 0.465593
vt 0.731215 0.423240
vt 0.902405 0.423240
vt 0.496968 0.728030
vt 0.496968 0.776460
vt 0.464020 0.769470
vt 0.464020 0.735020
vt 0.503569 0.776460
vt 0.503569 0.728030
vt 0.536517 0.735020
vt 0.536517 0.769470
vn -0.077200 0.039391 -0.996237
vn 0.077200 0.039391 -0.996237
vn 0.077200 -0.039391 -0.996237
vn -0.077200 -0.039391 -0.996237
vn -0.847302 0.049155 -0.528832
vn -0.999660 0.026083 -0.000000
vn -0.994131 -0.108181 -0.000000
vn -0.820992 -0.202237 -0.533921
vn -0.842741 0.048890 0.536095
vn -0.816753 -0.201193 0.540774
vn 0.077748 0.039670 0.996184
vn -0.077748 0.039670 0.996184
vn -0.077748 -0.039670 0.996184
vn 0.077748 -0.039670 0.996184
vn 0.842741 0.048890 0.536095
vn 0.999660 0.026083 0.000000
vn 0.994131 -0.108181 0.000000
vn 0.816753 -0.201193 0.540774
vn 0.847302 0.049155 -0.528831
vn 0.820992 -0.202237 -0.533921
vn -0.313501 -0.737432 -0.598256
vn 0.313501 -0.737432 -0.598256
vn 0.000000 -1.000000 0.000000
vn -0.641149 -0.767417 -0.000000
vn -0.313501 -0.737433 0.598256
vn 0.313501 -0.737432 0.598256
vn 0.641149 -0.767417 0.000000
vn 0.412325 0.455854 -0.788787
vn -0.412325 0.455854 -0.788787
vn 0.000000 1.000000 0.000000
vn -0.882050 0.471156 0.000000
vn -0.412325 0.455854 0.788787
vn 0.412325 0.455854 0.788787
vn 0.882050 0.471156 -0.000000
vn -0.474013 0.038293 -0.879685
vn 0.474013 0.038293 -0.879685
vn -0.999705 0.024288 -0.000000
vn -0.474013 0.038293 0.879685
vn 0.474013 0.038293 0.879685
vn 0.999705 0.024288 0.000000
vn -0.280281 0.794627 -0.538526
vn 0.280281 0.794627 -0.538526
vn -0.579223 0.815169 -0.000000
vn -0.280281 0.794627 0.538526
vn 0.280281 0.794627 0.538526
vn 0.579223 0.815169 0.000000
vn -0.037413 0.996825 -0.070294
vn 0.037413 0.996825 -0.070294
vn -0.087031 0.996206 0.000000
vn -0.037413 0.996825 0.070293
vn 0.037413 0.996825 0.070293
vn 0.087031 0.996206 -0.000000
vn 0.468864 -0.037149 -0.882489
vn -0.468864 -0.037149 -0.882489
vn -0.999409 -0.034380 -0.000000
vn -0.468864 -0.037149 0.882489
vn 0.468864 -0.037149 0.882489
vn 0.999409 -0.034380 0.000000
vn 0.632966 0.322966 -0.703596
vn -0.632966 0.322966 -0.703596
vn 0.632964 -0.322964 -0.703598
vn -0.632964 -0.322965 -0.703598
vn -0.520224 0.265440 0.811731
vn 0.520225 0.265440 0.811731
vn -0.520224 -0.265440 0.811732
vn 0.520224 -0.265440 0.811732
s 1
g pCylinder1
usemtl initialShadingGroup
f 55/107/1 56/108/2 57/109/3 58/110/4
f 2/1/5 3/2/6 9/3/7 8/4/8
f 3/2/6 4/7/9 10/8/10 9/3/7
f 63/111/11 64/112/12 65/113/13 66/114/14
f 5/19/15 6/20/16 12/21/17 11/22/18
f 6/20/16 1/25/19 7/26/20 12/21/17
f 45/65/21 44/66/22 46/67/23
f 47/69/24 45/65/21 46/67/23
f 48/71/25 47/69/24 46/67/23
f 49/70/26 48/71/25 46/67/23
f 50/68/27 49/70/26 46/67/23
f 44/66/22 50/68/27 46/67/23
f 31/72/28 32/73/29 33/74/30
f 32/73/29 34/75/31 33/74/30
f 34/75/31 35/77/32 33/74/30
f 35/77/32 36/78/33 33/74/30
f 36/78/33 37/76/34 33/74/30
f 37/76/34 31/72/28 33/74/30
f 7/119/20 8/120/8 14/116/35 13/115/36
f 8/4/8 9/3/7 15/9/37 14/10/35
f 9/3/7 10/8/10 16/14/38 15/9/37
f 10/135/10 11/136/18 17/132/39 16/131/38
f 11/22/18 12/21/17 18/27/40 17/28/39
f 12/21/17 7/26/20 13/32/36 18/27/40
f 13/115/36 14/116/35 20/117/41 19/118/42
f 14/10/35 15/9/37 21/15/43 20/16/41
f 15/9/37 16/14/38 22/18/44 21/15/43
f 16/131/38 17/132/39 23/133/45 22/134/44
f 17/28/39 18/27/40 24/33/46 23/34/45
f 18/27/40 13/32/36 19/36/42 24/33/46
f 19/79/42 20/80/41 26/81/47 25/82/48
f 20/80/41 21/83/43 27/84/49 26/81/47
f 21/83/43 22/87/44 28/88/50 27/84/49
f 22/87/44 23/89/45 29/90/51 28/88/50
f 23/89/45 24/85/46 30/86/52 29/90/51
f 24/85/46 19/79/42 25/82/48 30/86/52
f 25/147/48 26/148/47 32/149/29 31/150/28
f 26/37/47 27/38/49 34/39/31 32/40/29
f 27/38/49 28/41/50 35/42/32 34/39/31
f 28/151/50 29/152/51 36/153/33 35/154/32
f 29/43/51 30/44/52 37/45/34 36/46/33
f 30/44/52 25/47/48 31/48/28 37/45/34
f 2/125/5 1/123/19 38/127/53 39/128/54
f 3/2/6 2/1/5 39/5/54 40/6/55
f 4/7/9 3/2/6 40/6/55 41/13/56
f 5/141/15 4/139/9 41/143/56 42/144/57
f 6/20/16 5/19/15 42/23/57 43/24/58
f 1/25/19 6/20/16 43/24/58 38/31/53
f 39/128/54 38/127/53 44/129/22 45/130/21
f 40/6/55 39/5/54 45/11/21 47/12/24
f 41/13/56 40/6/55 47/12/24 48/17/25
f 42/144/57 41/143/56 48/145/25 49/146/26
f 43/24/58 42/23/57 49/29/26 50/30/27
f 38/31/53 43/24/58 50/30/27 44/35/22
f 1/123/19 2/125/5 52/126/59 51/124/60
f 2/125/5 8/120/8 53/122/61 52/126/59
f 8/120/8 7/119/20 54/121/62 53/122/61
f 7/119/20 1/123/19 51/124/60 54/121/62
f 51/91/60 52/92/59 56/93/2 55/94/1
f 52/49/59 53/50/61 57/51/3 56/52/2
f 53/95/61 54/96/62 58/97/4 57/98/3
f 54/53/62 51/54/60 55/55/1 58/56/4
f 4/139/9 5/141/15 60/142/63 59/140/64
f 5/141/15 11/136/18 61/138/65 60/142/63
f 11/136/18 10/135/10 62/137/66 61/138/65
f 10/135/10 4/139/9 59/140/64 62/137/66
f 59/99/64 60/100/63 64/101/12 63/102/11
f 60/57/63 61/58/65 65/59/13 64/60/12
f 61/103/65 62/104/66 66/105/14 65/106/13
f 62/61/66 59/62/64 63/63/11 66/64/14
